<?xml version="1.0" encoding="utf-8"?>
<!-- Generator: Adobe Illustrator 23.0.3, SVG Export Plug-In . SVG Version: 6.00 Build 0)  -->
<svg version="1.1" id="Layer_1" xmlns="http://www.w3.org/2000/svg" xmlns:xlink="http://www.w3.org/1999/xlink" x="0px" y="0px"
	 viewBox="0 0 1200 1200" enable-background="new 0 0 1200 1200" xml:space="preserve">
<g>
	<path fill="#CE454C" d="M1060.678,299.479H139.322C237.473,149.268,407.141,50,600,50C792.81,50,962.477,149.268,1060.678,299.479z
		"/>
	<path fill="#FD7924" d="M1149.709,582.97H50.291c2.717-90.341,27.267-175.15,68.507-249.48h962.403
		C1122.442,407.82,1146.991,492.63,1149.709,582.97z"/>
	<path fill="#FBB03B" d="M1149.709,616.981c-2.717,90.34-27.219,175.199-68.507,249.528H118.799
		c-41.289-74.33-65.79-159.188-68.507-249.528H1149.709z"/>
	<path fill="#225C8E" d="M1060.678,900.52C962.477,1050.732,792.81,1150,600,1150c-192.859,0-362.527-99.268-460.678-249.48
		H1060.678z"/>
</g>
</svg>
